solid OpenSCAD_Model
  facet normal 0 1 0
    outer loop
      vertex 22.3858 155 3.8147e-07
      vertex 23.8 155 6
      vertex 23.8 155 1.41421
    endloop
  endfacet
  facet normal 0 1 0
    outer loop
      vertex 6 155 23.8
      vertex 3.8147e-07 155 22.3858
      vertex 1.41421 155 23.8
    endloop
  endfacet
  facet normal 0 1 -0
    outer loop
      vertex 6 155 6
      vertex 3.8147e-07 155 22.3858
      vertex 6 155 23.8
    endloop
  endfacet
  facet normal 0 1 0
    outer loop
      vertex 6 155 6
      vertex 3.8147e-07 155 1
      vertex 3.8147e-07 155 22.3858
    endloop
  endfacet
  facet normal 0 1 0
    outer loop
      vertex 23.8 155 6
      vertex 22.3858 155 3.8147e-07
      vertex 6 155 6
    endloop
  endfacet
  facet normal 0 1 0
    outer loop
      vertex 1 155 3.8147e-07
      vertex 6 155 6
      vertex 22.3858 155 3.8147e-07
    endloop
  endfacet
  facet normal 0 1 0
    outer loop
      vertex 6 155 6
      vertex 1 155 3.8147e-07
      vertex 3.8147e-07 155 1
    endloop
  endfacet
  facet normal -0.500001 -0.707106 -0.500001
    outer loop
      vertex 3.8147e-07 1 1
      vertex 1.41421 0 1
      vertex 1 0 1.41421
    endloop
  endfacet
  facet normal -0.500001 -0.707106 -0.500001
    outer loop
      vertex 1.41421 0 1
      vertex 3.8147e-07 1 1
      vertex 1 1 3.8147e-07
    endloop
  endfacet
  facet normal -0.707107 -0.707107 0
    outer loop
      vertex 1 0 1.41421
      vertex 3.8147e-07 1 22.3858
      vertex 3.8147e-07 1 1
    endloop
  endfacet
  facet normal -0.707107 -0.707107 0
    outer loop
      vertex 3.8147e-07 1 22.3858
      vertex 1 0 1.41421
      vertex 1 0 21.9716
    endloop
  endfacet
  facet normal -0.499997 -0.707109 0.5
    outer loop
      vertex 3.8147e-07 1 22.3858
      vertex 1.82843 0 22.8
      vertex 1.41421 1 23.8
    endloop
  endfacet
  facet normal -0.499995 -0.707101 0.500013
    outer loop
      vertex 1.82843 0 22.8
      vertex 3.8147e-07 1 22.3858
      vertex 1 0 21.9716
    endloop
  endfacet
  facet normal 0 -0.707107 0.707107
    outer loop
      vertex 5 0 22.8
      vertex 1.41421 1 23.8
      vertex 1.82843 0 22.8
    endloop
  endfacet
  facet normal 0 -0.707107 0.707107
    outer loop
      vertex 1.41421 1 23.8
      vertex 5 0 22.8
      vertex 6 1 23.8
    endloop
  endfacet
  facet normal 0.707107 -0.707107 0
    outer loop
      vertex 5 0 22.8
      vertex 6 1 6
      vertex 6 1 23.8
    endloop
  endfacet
  facet normal 0.707107 -0.707107 0
    outer loop
      vertex 6 1 6
      vertex 5 0 22.8
      vertex 5 0 6
    endloop
  endfacet
  facet normal 0.57735 -0.57735 0.57735
    outer loop
      vertex 6 0 5
      vertex 6 1 6
      vertex 5 0 6
    endloop
  endfacet
  facet normal 0 -0.707107 0.707107
    outer loop
      vertex 22.8 0 5
      vertex 6 1 6
      vertex 6 0 5
    endloop
  endfacet
  facet normal 0 -0.707107 0.707107
    outer loop
      vertex 6 1 6
      vertex 22.8 0 5
      vertex 23.8 1 6
    endloop
  endfacet
  facet normal 0.707107 -0.707107 0
    outer loop
      vertex 22.8 0 5
      vertex 23.8 1 1.41421
      vertex 23.8 1 6
    endloop
  endfacet
  facet normal 0.707107 -0.707107 0
    outer loop
      vertex 23.8 1 1.41421
      vertex 22.8 0 5
      vertex 22.8 0 1.82843
    endloop
  endfacet
  facet normal 0.500006 -0.707111 -0.499988
    outer loop
      vertex 21.9716 0 1
      vertex 23.8 1 1.41421
      vertex 22.8 0 1.82843
    endloop
  endfacet
  facet normal 0.500005 -0.707103 -0.500001
    outer loop
      vertex 23.8 1 1.41421
      vertex 21.9716 0 1
      vertex 22.3858 1 3.8147e-07
    endloop
  endfacet
  facet normal 0 -0.707107 -0.707107
    outer loop
      vertex 1 1 3.8147e-07
      vertex 21.9716 0 1
      vertex 1.41421 0 1
    endloop
  endfacet
  facet normal 0 -0.707107 -0.707107
    outer loop
      vertex 21.9716 0 1
      vertex 1 1 3.8147e-07
      vertex 22.3858 1 3.8147e-07
    endloop
  endfacet
  facet normal 0 -1 0
    outer loop
      vertex 1 0 21.9716
      vertex 5 0 22.8
      vertex 1.82843 0 22.8
    endloop
  endfacet
  facet normal 0 -1 0
    outer loop
      vertex 1 0 21.9716
      vertex 5 0 6
      vertex 5 0 22.8
    endloop
  endfacet
  facet normal 0 -1 0
    outer loop
      vertex 21.9716 0 1
      vertex 22.8 0 5
      vertex 6 0 5
    endloop
  endfacet
  facet normal 0 -1 0
    outer loop
      vertex 1 0 1.41421
      vertex 5 0 6
      vertex 1 0 21.9716
    endloop
  endfacet
  facet normal 0 -1 0
    outer loop
      vertex 1 0 1.41421
      vertex 6 0 5
      vertex 5 0 6
    endloop
  endfacet
  facet normal 0 -1 0
    outer loop
      vertex 1.41421 0 1
      vertex 6 0 5
      vertex 1 0 1.41421
    endloop
  endfacet
  facet normal 0 -1 -0
    outer loop
      vertex 6 0 5
      vertex 1.41421 0 1
      vertex 21.9716 0 1
    endloop
  endfacet
  facet normal 0 -1 -0
    outer loop
      vertex 22.8 0 5
      vertex 21.9716 0 1
      vertex 22.8 0 1.82843
    endloop
  endfacet
  facet normal -0.707107 0 -0.707107
    outer loop
      vertex 1 1 3.8147e-07
      vertex 3.8147e-07 155 1
      vertex 1 155 3.8147e-07
    endloop
  endfacet
  facet normal -0.707107 -0 -0.707107
    outer loop
      vertex 3.8147e-07 155 1
      vertex 1 1 3.8147e-07
      vertex 3.8147e-07 1 1
    endloop
  endfacet
  facet normal -1 0 0
    outer loop
      vertex 3.8147e-07 155 1
      vertex 3.8147e-07 115.5 11.9
      vertex 3.8147e-07 155 22.3858
    endloop
  endfacet
  facet normal -1 0 0
    outer loop
      vertex 3.8147e-07 155 1
      vertex 3.8147e-07 114 10.4
      vertex 3.8147e-07 115.5 11.9
    endloop
  endfacet
  facet normal -1 0 0
    outer loop
      vertex 3.8147e-07 114 10.4
      vertex 3.8147e-07 77.5 11.9
      vertex 3.8147e-07 112.5 11.9
    endloop
  endfacet
  facet normal -1 0 0
    outer loop
      vertex 3.8147e-07 76 10.4
      vertex 3.8147e-07 114 10.4
      vertex 3.8147e-07 155 1
    endloop
  endfacet
  facet normal -1 0 0
    outer loop
      vertex 3.8147e-07 114 10.4
      vertex 3.8147e-07 76 10.4
      vertex 3.8147e-07 77.5 11.9
    endloop
  endfacet
  facet normal -1 0 0
    outer loop
      vertex 3.8147e-07 76 10.4
      vertex 3.8147e-07 39.5 11.9
      vertex 3.8147e-07 74.5 11.9
    endloop
  endfacet
  facet normal -1 0 0
    outer loop
      vertex 3.8147e-07 1 1
      vertex 3.8147e-07 76 10.4
      vertex 3.8147e-07 155 1
    endloop
  endfacet
  facet normal -1 0 0
    outer loop
      vertex 3.8147e-07 76 10.4
      vertex 3.8147e-07 38 10.4
      vertex 3.8147e-07 39.5 11.9
    endloop
  endfacet
  facet normal -1 -0 0
    outer loop
      vertex 3.8147e-07 38 10.4
      vertex 3.8147e-07 1 1
      vertex 3.8147e-07 36.5 11.9
    endloop
  endfacet
  facet normal -1 -0 0
    outer loop
      vertex 3.8147e-07 76 10.4
      vertex 3.8147e-07 1 1
      vertex 3.8147e-07 38 10.4
    endloop
  endfacet
  facet normal -1 0 0
    outer loop
      vertex 3.8147e-07 114 13.4
      vertex 3.8147e-07 155 22.3858
      vertex 3.8147e-07 115.5 11.9
    endloop
  endfacet
  facet normal -1 0 0
    outer loop
      vertex 3.8147e-07 77.5 11.9
      vertex 3.8147e-07 114 13.4
      vertex 3.8147e-07 112.5 11.9
    endloop
  endfacet
  facet normal -1 0 0
    outer loop
      vertex 3.8147e-07 76 13.4
      vertex 3.8147e-07 114 13.4
      vertex 3.8147e-07 77.5 11.9
    endloop
  endfacet
  facet normal -1 0 0
    outer loop
      vertex 3.8147e-07 114 13.4
      vertex 3.8147e-07 76 13.4
      vertex 3.8147e-07 155 22.3858
    endloop
  endfacet
  facet normal -1 0 0
    outer loop
      vertex 3.8147e-07 39.5 11.9
      vertex 3.8147e-07 76 13.4
      vertex 3.8147e-07 74.5 11.9
    endloop
  endfacet
  facet normal -1 0 0
    outer loop
      vertex 3.8147e-07 38 13.4
      vertex 3.8147e-07 76 13.4
      vertex 3.8147e-07 39.5 11.9
    endloop
  endfacet
  facet normal -1 0 0
    outer loop
      vertex 3.8147e-07 1 22.3858
      vertex 3.8147e-07 76 13.4
      vertex 3.8147e-07 38 13.4
    endloop
  endfacet
  facet normal -1 0 0
    outer loop
      vertex 3.8147e-07 1 22.3858
      vertex 3.8147e-07 36.5 11.9
      vertex 3.8147e-07 1 1
    endloop
  endfacet
  facet normal -1 0 0
    outer loop
      vertex 3.8147e-07 76 13.4
      vertex 3.8147e-07 1 22.3858
      vertex 3.8147e-07 155 22.3858
    endloop
  endfacet
  facet normal -1 0 0
    outer loop
      vertex 3.8147e-07 36.5 11.9
      vertex 3.8147e-07 1 22.3858
      vertex 3.8147e-07 38 13.4
    endloop
  endfacet
  facet normal -0.707104 0 0.707109
    outer loop
      vertex 3.8147e-07 155 22.3858
      vertex 1.41421 1 23.8
      vertex 1.41421 155 23.8
    endloop
  endfacet
  facet normal -0.707104 0 0.707109
    outer loop
      vertex 1.41421 1 23.8
      vertex 3.8147e-07 155 22.3858
      vertex 3.8147e-07 1 22.3858
    endloop
  endfacet
  facet normal -0 0 1
    outer loop
      vertex 1.41421 155 23.8
      vertex 6 154 23.8
      vertex 6 155 23.8
    endloop
  endfacet
  facet normal 0 0 1
    outer loop
      vertex 6 154 23.8
      vertex 1.41421 155 23.8
      vertex 6 149 23.8
    endloop
  endfacet
  facet normal 0 0 1
    outer loop
      vertex 1.41421 1 23.8
      vertex 6 149 23.8
      vertex 1.41421 155 23.8
    endloop
  endfacet
  facet normal 0 0 1
    outer loop
      vertex 6 149 23.8
      vertex 1.41421 1 23.8
      vertex 6 1 23.8
    endloop
  endfacet
  facet normal 1 -0 0
    outer loop
      vertex 6 154 23.8
      vertex 6 155 6
      vertex 6 155 23.8
    endloop
  endfacet
  facet normal 1 0 0
    outer loop
      vertex 6 155 6
      vertex 6 154 23.8
      vertex 6 154 6
    endloop
  endfacet
  facet normal -1 0 0
    outer loop
      vertex 6 149 23.8
      vertex 6 154 26.8
      vertex 6 154 23.8
    endloop
  endfacet
  facet normal -1 -0 0
    outer loop
      vertex 6 154 26.8
      vertex 6 149 23.8
      vertex 6 149 26.8
    endloop
  endfacet
  facet normal 1 0 0
    outer loop
      vertex 6 149 23.8
      vertex 6 115.5 11.9
      vertex 6 149 6
    endloop
  endfacet
  facet normal 1 0 0
    outer loop
      vertex 6 149 23.8
      vertex 6 114 13.4
      vertex 6 115.5 11.9
    endloop
  endfacet
  facet normal 1 0 0
    outer loop
      vertex 6 114 13.4
      vertex 6 77.5 11.9
      vertex 6 112.5 11.9
    endloop
  endfacet
  facet normal 1 0 0
    outer loop
      vertex 6 76 13.4
      vertex 6 114 13.4
      vertex 6 149 23.8
    endloop
  endfacet
  facet normal 1 0 0
    outer loop
      vertex 6 114 13.4
      vertex 6 76 13.4
      vertex 6 77.5 11.9
    endloop
  endfacet
  facet normal 1 0 0
    outer loop
      vertex 6 76 13.4
      vertex 6 39.5 11.9
      vertex 6 74.5 11.9
    endloop
  endfacet
  facet normal 1 -0 0
    outer loop
      vertex 6 1 23.8
      vertex 6 76 13.4
      vertex 6 149 23.8
    endloop
  endfacet
  facet normal 1 0 0
    outer loop
      vertex 6 76 13.4
      vertex 6 38 13.4
      vertex 6 39.5 11.9
    endloop
  endfacet
  facet normal 1 0 0
    outer loop
      vertex 6 38 13.4
      vertex 6 1 23.8
      vertex 6 36.5 11.9
    endloop
  endfacet
  facet normal 1 0 0
    outer loop
      vertex 6 76 13.4
      vertex 6 1 23.8
      vertex 6 38 13.4
    endloop
  endfacet
  facet normal 1 -0 0
    outer loop
      vertex 6 114 10.4
      vertex 6 149 6
      vertex 6 115.5 11.9
    endloop
  endfacet
  facet normal 1 -0 0
    outer loop
      vertex 6 77.5 11.9
      vertex 6 114 10.4
      vertex 6 112.5 11.9
    endloop
  endfacet
  facet normal 1 0 0
    outer loop
      vertex 6 76 10.4
      vertex 6 114 10.4
      vertex 6 77.5 11.9
    endloop
  endfacet
  facet normal 1 0 0
    outer loop
      vertex 6 114 10.4
      vertex 6 76 10.4
      vertex 6 149 6
    endloop
  endfacet
  facet normal 1 -0 0
    outer loop
      vertex 6 39.5 11.9
      vertex 6 76 10.4
      vertex 6 74.5 11.9
    endloop
  endfacet
  facet normal 1 0 0
    outer loop
      vertex 6 38 10.4
      vertex 6 76 10.4
      vertex 6 39.5 11.9
    endloop
  endfacet
  facet normal 1 0 0
    outer loop
      vertex 6 1 6
      vertex 6 76 10.4
      vertex 6 38 10.4
    endloop
  endfacet
  facet normal 1 0 0
    outer loop
      vertex 6 1 6
      vertex 6 36.5 11.9
      vertex 6 1 23.8
    endloop
  endfacet
  facet normal 1 0 0
    outer loop
      vertex 6 76 10.4
      vertex 6 1 6
      vertex 6 149 6
    endloop
  endfacet
  facet normal 1 0 0
    outer loop
      vertex 6 36.5 11.9
      vertex 6 1 6
      vertex 6 38 10.4
    endloop
  endfacet
  facet normal 0 0 -1
    outer loop
      vertex 23.8 149 6
      vertex 26.8 154 6
      vertex 26.8 149 6
    endloop
  endfacet
  facet normal -0 0 -1
    outer loop
      vertex 26.8 154 6
      vertex 23.8 149 6
      vertex 23.8 154 6
    endloop
  endfacet
  facet normal -0 0 1
    outer loop
      vertex 6 155 6
      vertex 23.8 154 6
      vertex 23.8 155 6
    endloop
  endfacet
  facet normal 0 0 1
    outer loop
      vertex 23.8 154 6
      vertex 6 155 6
      vertex 6 154 6
    endloop
  endfacet
  facet normal -0 0 1
    outer loop
      vertex 11.9 74.5 6
      vertex 13.4 38 6
      vertex 13.4 76 6
    endloop
  endfacet
  facet normal 0 0 1
    outer loop
      vertex 11.9 74.5 6
      vertex 11.9 39.5 6
      vertex 13.4 38 6
    endloop
  endfacet
  facet normal 0 0 1
    outer loop
      vertex 10.4 76 6
      vertex 11.9 39.5 6
      vertex 11.9 74.5 6
    endloop
  endfacet
  facet normal 0 0 1
    outer loop
      vertex 11.9 39.5 6
      vertex 10.4 76 6
      vertex 10.4 38 6
    endloop
  endfacet
  facet normal -0 0 1
    outer loop
      vertex 11.9 112.5 6
      vertex 13.4 76 6
      vertex 13.4 114 6
    endloop
  endfacet
  facet normal 0 0 1
    outer loop
      vertex 11.9 112.5 6
      vertex 11.9 77.5 6
      vertex 13.4 76 6
    endloop
  endfacet
  facet normal 0 0 1
    outer loop
      vertex 10.4 114 6
      vertex 11.9 77.5 6
      vertex 11.9 112.5 6
    endloop
  endfacet
  facet normal 0 0 1
    outer loop
      vertex 11.9 77.5 6
      vertex 10.4 114 6
      vertex 10.4 76 6
    endloop
  endfacet
  facet normal 0 0 1
    outer loop
      vertex 13.4 76 6
      vertex 23.8 149 6
      vertex 13.4 114 6
    endloop
  endfacet
  facet normal 0 0 1
    outer loop
      vertex 23.8 149 6
      vertex 11.9 115.5 6
      vertex 13.4 114 6
    endloop
  endfacet
  facet normal -0 0 1
    outer loop
      vertex 6 149 6
      vertex 11.9 115.5 6
      vertex 23.8 149 6
    endloop
  endfacet
  facet normal 0 0 1
    outer loop
      vertex 6 149 6
      vertex 10.4 76 6
      vertex 10.4 114 6
    endloop
  endfacet
  facet normal 0 0 1
    outer loop
      vertex 6 1 6
      vertex 10.4 76 6
      vertex 6 149 6
    endloop
  endfacet
  facet normal 0 0 1
    outer loop
      vertex 11.9 115.5 6
      vertex 6 149 6
      vertex 10.4 114 6
    endloop
  endfacet
  facet normal 0 0 1
    outer loop
      vertex 23.8 149 6
      vertex 13.4 76 6
      vertex 23.8 1 6
    endloop
  endfacet
  facet normal -0 0 1
    outer loop
      vertex 13.4 38 6
      vertex 23.8 1 6
      vertex 13.4 76 6
    endloop
  endfacet
  facet normal -0 0 1
    outer loop
      vertex 11.9 36.5 6
      vertex 23.8 1 6
      vertex 13.4 38 6
    endloop
  endfacet
  facet normal 0 0 1
    outer loop
      vertex 6 1 6
      vertex 11.9 36.5 6
      vertex 10.4 38 6
    endloop
  endfacet
  facet normal 0 0 1
    outer loop
      vertex 11.9 36.5 6
      vertex 6 1 6
      vertex 23.8 1 6
    endloop
  endfacet
  facet normal 0 0 1
    outer loop
      vertex 10.4 76 6
      vertex 6 1 6
      vertex 10.4 38 6
    endloop
  endfacet
  facet normal 1 -0 0
    outer loop
      vertex 23.8 154 6
      vertex 23.8 155 1.41421
      vertex 23.8 155 6
    endloop
  endfacet
  facet normal 1 -0 0
    outer loop
      vertex 23.8 149 6
      vertex 23.8 155 1.41421
      vertex 23.8 154 6
    endloop
  endfacet
  facet normal 1 0 0
    outer loop
      vertex 23.8 1 1.41421
      vertex 23.8 149 6
      vertex 23.8 1 6
    endloop
  endfacet
  facet normal 1 0 0
    outer loop
      vertex 23.8 149 6
      vertex 23.8 1 1.41421
      vertex 23.8 155 1.41421
    endloop
  endfacet
  facet normal 0.707109 0 -0.707104
    outer loop
      vertex 23.8 1 1.41421
      vertex 22.3858 155 3.8147e-07
      vertex 23.8 155 1.41421
    endloop
  endfacet
  facet normal 0.707109 0 -0.707104
    outer loop
      vertex 22.3858 155 3.8147e-07
      vertex 23.8 1 1.41421
      vertex 22.3858 1 3.8147e-07
    endloop
  endfacet
  facet normal 0 0 -1
    outer loop
      vertex 11.9 77.5 3.8147e-07
      vertex 13.4 114 3.8147e-07
      vertex 13.4 76 3.8147e-07
    endloop
  endfacet
  facet normal 0 0 -1
    outer loop
      vertex 11.9 77.5 3.8147e-07
      vertex 11.9 112.5 3.8147e-07
      vertex 13.4 114 3.8147e-07
    endloop
  endfacet
  facet normal 0 0 -1
    outer loop
      vertex 10.4 76 3.8147e-07
      vertex 11.9 112.5 3.8147e-07
      vertex 11.9 77.5 3.8147e-07
    endloop
  endfacet
  facet normal -0 0 -1
    outer loop
      vertex 11.9 112.5 3.8147e-07
      vertex 10.4 76 3.8147e-07
      vertex 10.4 114 3.8147e-07
    endloop
  endfacet
  facet normal 0 0 -1
    outer loop
      vertex 11.9 39.5 3.8147e-07
      vertex 13.4 76 3.8147e-07
      vertex 13.4 38 3.8147e-07
    endloop
  endfacet
  facet normal 0 0 -1
    outer loop
      vertex 11.9 39.5 3.8147e-07
      vertex 11.9 74.5 3.8147e-07
      vertex 13.4 76 3.8147e-07
    endloop
  endfacet
  facet normal 0 0 -1
    outer loop
      vertex 10.4 38 3.8147e-07
      vertex 11.9 74.5 3.8147e-07
      vertex 11.9 39.5 3.8147e-07
    endloop
  endfacet
  facet normal -0 0 -1
    outer loop
      vertex 11.9 74.5 3.8147e-07
      vertex 10.4 38 3.8147e-07
      vertex 10.4 76 3.8147e-07
    endloop
  endfacet
  facet normal 0 0 -1
    outer loop
      vertex 13.4 76 3.8147e-07
      vertex 22.3858 1 3.8147e-07
      vertex 13.4 38 3.8147e-07
    endloop
  endfacet
  facet normal 0 0 -1
    outer loop
      vertex 22.3858 1 3.8147e-07
      vertex 11.9 36.5 3.8147e-07
      vertex 13.4 38 3.8147e-07
    endloop
  endfacet
  facet normal 0 0 -1
    outer loop
      vertex 1 1 3.8147e-07
      vertex 11.9 36.5 3.8147e-07
      vertex 22.3858 1 3.8147e-07
    endloop
  endfacet
  facet normal 0 0 -1
    outer loop
      vertex 1 1 3.8147e-07
      vertex 10.4 76 3.8147e-07
      vertex 10.4 38 3.8147e-07
    endloop
  endfacet
  facet normal 0 0 -1
    outer loop
      vertex 1 155 3.8147e-07
      vertex 10.4 76 3.8147e-07
      vertex 1 1 3.8147e-07
    endloop
  endfacet
  facet normal -0 0 -1
    outer loop
      vertex 11.9 36.5 3.8147e-07
      vertex 1 1 3.8147e-07
      vertex 10.4 38 3.8147e-07
    endloop
  endfacet
  facet normal 0 0 -1
    outer loop
      vertex 22.3858 1 3.8147e-07
      vertex 13.4 76 3.8147e-07
      vertex 22.3858 155 3.8147e-07
    endloop
  endfacet
  facet normal 0 0 -1
    outer loop
      vertex 13.4 114 3.8147e-07
      vertex 22.3858 155 3.8147e-07
      vertex 13.4 76 3.8147e-07
    endloop
  endfacet
  facet normal 0 0 -1
    outer loop
      vertex 11.9 115.5 3.8147e-07
      vertex 22.3858 155 3.8147e-07
      vertex 13.4 114 3.8147e-07
    endloop
  endfacet
  facet normal 0 0 -1
    outer loop
      vertex 1 155 3.8147e-07
      vertex 11.9 115.5 3.8147e-07
      vertex 10.4 114 3.8147e-07
    endloop
  endfacet
  facet normal 0 0 -1
    outer loop
      vertex 11.9 115.5 3.8147e-07
      vertex 1 155 3.8147e-07
      vertex 22.3858 155 3.8147e-07
    endloop
  endfacet
  facet normal 0 0 -1
    outer loop
      vertex 10.4 76 3.8147e-07
      vertex 1 155 3.8147e-07
      vertex 10.4 114 3.8147e-07
    endloop
  endfacet
  facet normal -0 0 1
    outer loop
      vertex 6 154 26.8
      vertex 26.8 149 26.8
      vertex 26.8 154 26.8
    endloop
  endfacet
  facet normal 0 0 1
    outer loop
      vertex 26.8 149 26.8
      vertex 6 154 26.8
      vertex 6 149 26.8
    endloop
  endfacet
  facet normal 1 -0 0
    outer loop
      vertex 26.8 149 26.8
      vertex 26.8 154 6
      vertex 26.8 154 26.8
    endloop
  endfacet
  facet normal 1 0 0
    outer loop
      vertex 26.8 154 6
      vertex 26.8 149 26.8
      vertex 26.8 149 6
    endloop
  endfacet
  facet normal 0 1 0
    outer loop
      vertex 25.8 155 25.8
      vertex 16.4 155 19.4
      vertex 7 155 25.8
    endloop
  endfacet
  facet normal 0 1 0
    outer loop
      vertex 25.8 155 25.8
      vertex 17.1765 155 19.2978
      vertex 16.4 155 19.4
    endloop
  endfacet
  facet normal 0 1 0
    outer loop
      vertex 25.8 155 25.8
      vertex 17.9 155 18.9981
      vertex 17.1765 155 19.2978
    endloop
  endfacet
  facet normal 0 1 0
    outer loop
      vertex 25.8 155 25.8
      vertex 18.5213 155 18.5213
      vertex 17.9 155 18.9981
    endloop
  endfacet
  facet normal 0 1 0
    outer loop
      vertex 25.8 155 25.8
      vertex 18.9981 155 17.9
      vertex 18.5213 155 18.5213
    endloop
  endfacet
  facet normal 0 1 0
    outer loop
      vertex 25.8 155 25.8
      vertex 19.2978 155 17.1765
      vertex 18.9981 155 17.9
    endloop
  endfacet
  facet normal 0 1 0
    outer loop
      vertex 25.8 155 25.8
      vertex 19.4 155 16.4
      vertex 19.2978 155 17.1765
    endloop
  endfacet
  facet normal 0 1 -0
    outer loop
      vertex 25.8 155 7
      vertex 19.4 155 16.4
      vertex 25.8 155 25.8
    endloop
  endfacet
  facet normal 0 1 0
    outer loop
      vertex 19.4 155 16.4
      vertex 25.8 155 7
      vertex 19.2978 155 15.6235
    endloop
  endfacet
  facet normal 0 1 0
    outer loop
      vertex 17.1765 155 13.5022
      vertex 25.8 155 7
      vertex 16.4 155 13.4
    endloop
  endfacet
  facet normal 0 1 0
    outer loop
      vertex 17.9 155 13.8019
      vertex 25.8 155 7
      vertex 17.1765 155 13.5022
    endloop
  endfacet
  facet normal 0 1 0
    outer loop
      vertex 18.5213 155 14.2787
      vertex 25.8 155 7
      vertex 17.9 155 13.8019
    endloop
  endfacet
  facet normal 0 1 0
    outer loop
      vertex 18.9981 155 14.9
      vertex 25.8 155 7
      vertex 18.5213 155 14.2787
    endloop
  endfacet
  facet normal 0 1 0
    outer loop
      vertex 19.2978 155 15.6235
      vertex 25.8 155 7
      vertex 18.9981 155 14.9
    endloop
  endfacet
  facet normal 0 1 -0
    outer loop
      vertex 15.6235 155 19.2978
      vertex 7 155 25.8
      vertex 16.4 155 19.4
    endloop
  endfacet
  facet normal 0 1 -0
    outer loop
      vertex 14.9 155 18.9981
      vertex 7 155 25.8
      vertex 15.6235 155 19.2978
    endloop
  endfacet
  facet normal 0 1 -0
    outer loop
      vertex 14.2787 155 18.5213
      vertex 7 155 25.8
      vertex 14.9 155 18.9981
    endloop
  endfacet
  facet normal 0 1 -0
    outer loop
      vertex 13.8019 155 17.9
      vertex 7 155 25.8
      vertex 14.2787 155 18.5213
    endloop
  endfacet
  facet normal 0 1 -0
    outer loop
      vertex 13.5022 155 17.1765
      vertex 7 155 25.8
      vertex 13.8019 155 17.9
    endloop
  endfacet
  facet normal 0 1 -0
    outer loop
      vertex 13.4 155 16.4
      vertex 7 155 25.8
      vertex 13.5022 155 17.1765
    endloop
  endfacet
  facet normal 0 1 0
    outer loop
      vertex 7 155 7
      vertex 13.4 155 16.4
      vertex 13.5022 155 15.6235
    endloop
  endfacet
  facet normal 0 1 0
    outer loop
      vertex 7 155 7
      vertex 13.5022 155 15.6235
      vertex 13.8019 155 14.9
    endloop
  endfacet
  facet normal 0 1 0
    outer loop
      vertex 7 155 7
      vertex 16.4 155 13.4
      vertex 25.8 155 7
    endloop
  endfacet
  facet normal 0 1 0
    outer loop
      vertex 16.4 155 13.4
      vertex 7 155 7
      vertex 15.6235 155 13.5022
    endloop
  endfacet
  facet normal 0 1 0
    outer loop
      vertex 13.4 155 16.4
      vertex 7 155 7
      vertex 7 155 25.8
    endloop
  endfacet
  facet normal 0 1 0
    outer loop
      vertex 14.2787 155 14.2787
      vertex 7 155 7
      vertex 13.8019 155 14.9
    endloop
  endfacet
  facet normal 0 1 0
    outer loop
      vertex 14.9 155 13.8019
      vertex 7 155 7
      vertex 14.2787 155 14.2787
    endloop
  endfacet
  facet normal 0 1 0
    outer loop
      vertex 15.6235 155 13.5022
      vertex 7 155 7
      vertex 14.9 155 13.8019
    endloop
  endfacet
  facet normal 0.707107 0.707107 0
    outer loop
      vertex 26.8 154 26.8
      vertex 25.8 155 7
      vertex 25.8 155 25.8
    endloop
  endfacet
  facet normal 0.707107 0.707107 0
    outer loop
      vertex 25.8 155 7
      vertex 26.8 154 26.8
      vertex 26.8 154 6
    endloop
  endfacet
  facet normal 0 0.707107 -0.707107
    outer loop
      vertex 23.8 154 6
      vertex 25.8 155 7
      vertex 26.8 154 6
    endloop
  endfacet
  facet normal 0 0.707107 -0.707107
    outer loop
      vertex 25.8 155 7
      vertex 23.8 154 6
      vertex 7 155 7
    endloop
  endfacet
  facet normal 0 0.707107 -0.707107
    outer loop
      vertex 7 155 7
      vertex 23.8 154 6
      vertex 6 154 6
    endloop
  endfacet
  facet normal -0.707107 0.707107 0
    outer loop
      vertex 6 154 23.8
      vertex 7 155 7
      vertex 6 154 6
    endloop
  endfacet
  facet normal -0.707107 0.707107 0
    outer loop
      vertex 7 155 7
      vertex 6 154 23.8
      vertex 7 155 25.8
    endloop
  endfacet
  facet normal -0.707107 0.707107 0
    outer loop
      vertex 7 155 25.8
      vertex 6 154 23.8
      vertex 6 154 26.8
    endloop
  endfacet
  facet normal 0 -1 0
    outer loop
      vertex 6 149 26.8
      vertex 16.0118 149 17.8489
      vertex 16.4 149 17.9
    endloop
  endfacet
  facet normal 0 -1 0
    outer loop
      vertex 6 149 23.8
      vertex 15.65 149 17.699
      vertex 16.0118 149 17.8489
    endloop
  endfacet
  facet normal 0 -1 0
    outer loop
      vertex 6 149 23.8
      vertex 15.3393 149 17.4607
      vertex 15.65 149 17.699
    endloop
  endfacet
  facet normal 0 -1 0
    outer loop
      vertex 6 149 23.8
      vertex 15.101 149 17.15
      vertex 15.3393 149 17.4607
    endloop
  endfacet
  facet normal 0 -1 0
    outer loop
      vertex 6 149 23.8
      vertex 14.9511 149 16.7882
      vertex 15.101 149 17.15
    endloop
  endfacet
  facet normal 0 -1 0
    outer loop
      vertex 6 149 23.8
      vertex 14.9 149 16.4
      vertex 14.9511 149 16.7882
    endloop
  endfacet
  facet normal 0 -1 0
    outer loop
      vertex 6 149 23.8
      vertex 14.9511 149 16.0118
      vertex 14.9 149 16.4
    endloop
  endfacet
  facet normal 0 -1 0
    outer loop
      vertex 6 149 6
      vertex 14.9511 149 16.0118
      vertex 6 149 23.8
    endloop
  endfacet
  facet normal 0 -1 -0
    outer loop
      vertex 14.9511 149 16.0118
      vertex 6 149 6
      vertex 15.101 149 15.65
    endloop
  endfacet
  facet normal 0 -1 0
    outer loop
      vertex 23.8 149 6
      vertex 16.0118 149 14.9511
      vertex 6 149 6
    endloop
  endfacet
  facet normal 0 -1 -0
    outer loop
      vertex 15.65 149 15.101
      vertex 6 149 6
      vertex 16.0118 149 14.9511
    endloop
  endfacet
  facet normal 0 -1 -0
    outer loop
      vertex 15.3393 149 15.3393
      vertex 6 149 6
      vertex 15.65 149 15.101
    endloop
  endfacet
  facet normal 0 -1 -0
    outer loop
      vertex 15.101 149 15.65
      vertex 6 149 6
      vertex 15.3393 149 15.3393
    endloop
  endfacet
  facet normal 0 -1 0
    outer loop
      vertex 16.0118 149 17.8489
      vertex 6 149 26.8
      vertex 6 149 23.8
    endloop
  endfacet
  facet normal 0 -1 0
    outer loop
      vertex 6 149 26.8
      vertex 16.4 149 17.9
      vertex 26.8 149 26.8
    endloop
  endfacet
  facet normal 0 -1 0
    outer loop
      vertex 16.7882 149 17.8489
      vertex 26.8 149 26.8
      vertex 16.4 149 17.9
    endloop
  endfacet
  facet normal 0 -1 0
    outer loop
      vertex 17.15 149 17.699
      vertex 26.8 149 26.8
      vertex 16.7882 149 17.8489
    endloop
  endfacet
  facet normal 0 -1 0
    outer loop
      vertex 17.4607 149 17.4607
      vertex 26.8 149 26.8
      vertex 17.15 149 17.699
    endloop
  endfacet
  facet normal 0 -1 0
    outer loop
      vertex 17.699 149 17.15
      vertex 26.8 149 26.8
      vertex 17.4607 149 17.4607
    endloop
  endfacet
  facet normal 0 -1 0
    outer loop
      vertex 17.8489 149 16.7882
      vertex 26.8 149 26.8
      vertex 17.699 149 17.15
    endloop
  endfacet
  facet normal 0 -1 0
    outer loop
      vertex 17.9 149 16.4
      vertex 26.8 149 26.8
      vertex 17.8489 149 16.7882
    endloop
  endfacet
  facet normal 0 -1 0
    outer loop
      vertex 26.8 149 6
      vertex 17.9 149 16.4
      vertex 17.8489 149 16.0118
    endloop
  endfacet
  facet normal 0 -1 0
    outer loop
      vertex 23.8 149 6
      vertex 17.8489 149 16.0118
      vertex 17.699 149 15.65
    endloop
  endfacet
  facet normal 0 -1 0
    outer loop
      vertex 23.8 149 6
      vertex 17.699 149 15.65
      vertex 17.4607 149 15.3393
    endloop
  endfacet
  facet normal 0 -1 0
    outer loop
      vertex 16.0118 149 14.9511
      vertex 23.8 149 6
      vertex 16.4 149 14.9
    endloop
  endfacet
  facet normal 0 -1 0
    outer loop
      vertex 16.4 149 14.9
      vertex 23.8 149 6
      vertex 16.7882 149 14.9511
    endloop
  endfacet
  facet normal 0 -1 0
    outer loop
      vertex 16.7882 149 14.9511
      vertex 23.8 149 6
      vertex 17.15 149 15.101
    endloop
  endfacet
  facet normal 0 -1 0
    outer loop
      vertex 17.15 149 15.101
      vertex 23.8 149 6
      vertex 17.4607 149 15.3393
    endloop
  endfacet
  facet normal 0 -1 0
    outer loop
      vertex 17.8489 149 16.0118
      vertex 23.8 149 6
      vertex 26.8 149 6
    endloop
  endfacet
  facet normal 0 -1 0
    outer loop
      vertex 17.9 149 16.4
      vertex 26.8 149 6
      vertex 26.8 149 26.8
    endloop
  endfacet
  facet normal 0 0.707107 0.707107
    outer loop
      vertex 25.8 155 25.8
      vertex 6 154 26.8
      vertex 26.8 154 26.8
    endloop
  endfacet
  facet normal 0 0.707107 0.707107
    outer loop
      vertex 6 154 26.8
      vertex 25.8 155 25.8
      vertex 7 155 25.8
    endloop
  endfacet
  facet normal 0.707107 0.707107 0
    outer loop
      vertex 11.9 112.5 6
      vertex 10.4 114 3.8147e-07
      vertex 10.4 114 6
    endloop
  endfacet
  facet normal 0.707107 0.707107 0
    outer loop
      vertex 10.4 114 3.8147e-07
      vertex 11.9 112.5 6
      vertex 11.9 112.5 3.8147e-07
    endloop
  endfacet
  facet normal 0.707107 -0.707107 0
    outer loop
      vertex 10.4 114 6
      vertex 11.9 115.5 3.8147e-07
      vertex 11.9 115.5 6
    endloop
  endfacet
  facet normal 0.707107 -0.707107 0
    outer loop
      vertex 11.9 115.5 3.8147e-07
      vertex 10.4 114 6
      vertex 10.4 114 3.8147e-07
    endloop
  endfacet
  facet normal -0.707107 0.707107 0
    outer loop
      vertex 11.9 112.5 3.8147e-07
      vertex 13.4 114 6
      vertex 13.4 114 3.8147e-07
    endloop
  endfacet
  facet normal -0.707107 0.707107 0
    outer loop
      vertex 13.4 114 6
      vertex 11.9 112.5 3.8147e-07
      vertex 11.9 112.5 6
    endloop
  endfacet
  facet normal -0.707107 -0.707107 0
    outer loop
      vertex 13.4 114 3.8147e-07
      vertex 11.9 115.5 6
      vertex 11.9 115.5 3.8147e-07
    endloop
  endfacet
  facet normal -0.707107 -0.707107 0
    outer loop
      vertex 11.9 115.5 6
      vertex 13.4 114 3.8147e-07
      vertex 13.4 114 6
    endloop
  endfacet
  facet normal 0 -0.707107 -0.707107
    outer loop
      vertex 3.8147e-07 115.5 11.9
      vertex 6 114 13.4
      vertex 3.8147e-07 114 13.4
    endloop
  endfacet
  facet normal 0 -0.707107 -0.707107
    outer loop
      vertex 6 114 13.4
      vertex 3.8147e-07 115.5 11.9
      vertex 6 115.5 11.9
    endloop
  endfacet
  facet normal 0 0.707107 0.707107
    outer loop
      vertex 6 114 10.4
      vertex 3.8147e-07 112.5 11.9
      vertex 6 112.5 11.9
    endloop
  endfacet
  facet normal 0 0.707107 0.707107
    outer loop
      vertex 3.8147e-07 112.5 11.9
      vertex 6 114 10.4
      vertex 3.8147e-07 114 10.4
    endloop
  endfacet
  facet normal 0 0.707107 -0.707107
    outer loop
      vertex 6 112.5 11.9
      vertex 3.8147e-07 114 13.4
      vertex 6 114 13.4
    endloop
  endfacet
  facet normal 0 0.707107 -0.707107
    outer loop
      vertex 3.8147e-07 114 13.4
      vertex 6 112.5 11.9
      vertex 3.8147e-07 112.5 11.9
    endloop
  endfacet
  facet normal 0 -0.707107 0.707107
    outer loop
      vertex 3.8147e-07 114 10.4
      vertex 6 115.5 11.9
      vertex 3.8147e-07 115.5 11.9
    endloop
  endfacet
  facet normal 0 -0.707107 0.707107
    outer loop
      vertex 6 115.5 11.9
      vertex 3.8147e-07 114 10.4
      vertex 6 114 10.4
    endloop
  endfacet
  facet normal 0.707107 0.707107 0
    outer loop
      vertex 11.9 74.5 6
      vertex 10.4 76 3.8147e-07
      vertex 10.4 76 6
    endloop
  endfacet
  facet normal 0.707107 0.707107 0
    outer loop
      vertex 10.4 76 3.8147e-07
      vertex 11.9 74.5 6
      vertex 11.9 74.5 3.8147e-07
    endloop
  endfacet
  facet normal 0.707107 -0.707107 0
    outer loop
      vertex 10.4 76 6
      vertex 11.9 77.5 3.8147e-07
      vertex 11.9 77.5 6
    endloop
  endfacet
  facet normal 0.707107 -0.707107 0
    outer loop
      vertex 11.9 77.5 3.8147e-07
      vertex 10.4 76 6
      vertex 10.4 76 3.8147e-07
    endloop
  endfacet
  facet normal -0.707107 0.707107 0
    outer loop
      vertex 11.9 74.5 3.8147e-07
      vertex 13.4 76 6
      vertex 13.4 76 3.8147e-07
    endloop
  endfacet
  facet normal -0.707107 0.707107 0
    outer loop
      vertex 13.4 76 6
      vertex 11.9 74.5 3.8147e-07
      vertex 11.9 74.5 6
    endloop
  endfacet
  facet normal -0.707107 -0.707107 0
    outer loop
      vertex 13.4 76 3.8147e-07
      vertex 11.9 77.5 6
      vertex 11.9 77.5 3.8147e-07
    endloop
  endfacet
  facet normal -0.707107 -0.707107 0
    outer loop
      vertex 11.9 77.5 6
      vertex 13.4 76 3.8147e-07
      vertex 13.4 76 6
    endloop
  endfacet
  facet normal 0 -0.707107 -0.707107
    outer loop
      vertex 3.8147e-07 77.5 11.9
      vertex 6 76 13.4
      vertex 3.8147e-07 76 13.4
    endloop
  endfacet
  facet normal 0 -0.707107 -0.707107
    outer loop
      vertex 6 76 13.4
      vertex 3.8147e-07 77.5 11.9
      vertex 6 77.5 11.9
    endloop
  endfacet
  facet normal 0 0.707107 0.707107
    outer loop
      vertex 6 76 10.4
      vertex 3.8147e-07 74.5 11.9
      vertex 6 74.5 11.9
    endloop
  endfacet
  facet normal 0 0.707107 0.707107
    outer loop
      vertex 3.8147e-07 74.5 11.9
      vertex 6 76 10.4
      vertex 3.8147e-07 76 10.4
    endloop
  endfacet
  facet normal 0 0.707107 -0.707107
    outer loop
      vertex 6 74.5 11.9
      vertex 3.8147e-07 76 13.4
      vertex 6 76 13.4
    endloop
  endfacet
  facet normal 0 0.707107 -0.707107
    outer loop
      vertex 3.8147e-07 76 13.4
      vertex 6 74.5 11.9
      vertex 3.8147e-07 74.5 11.9
    endloop
  endfacet
  facet normal 0 -0.707107 0.707107
    outer loop
      vertex 3.8147e-07 76 10.4
      vertex 6 77.5 11.9
      vertex 3.8147e-07 77.5 11.9
    endloop
  endfacet
  facet normal 0 -0.707107 0.707107
    outer loop
      vertex 6 77.5 11.9
      vertex 3.8147e-07 76 10.4
      vertex 6 76 10.4
    endloop
  endfacet
  facet normal 0.707107 0.707107 0
    outer loop
      vertex 11.9 36.5 6
      vertex 10.4 38 3.8147e-07
      vertex 10.4 38 6
    endloop
  endfacet
  facet normal 0.707107 0.707107 0
    outer loop
      vertex 10.4 38 3.8147e-07
      vertex 11.9 36.5 6
      vertex 11.9 36.5 3.8147e-07
    endloop
  endfacet
  facet normal 0.707107 -0.707107 0
    outer loop
      vertex 10.4 38 6
      vertex 11.9 39.5 3.8147e-07
      vertex 11.9 39.5 6
    endloop
  endfacet
  facet normal 0.707107 -0.707107 0
    outer loop
      vertex 11.9 39.5 3.8147e-07
      vertex 10.4 38 6
      vertex 10.4 38 3.8147e-07
    endloop
  endfacet
  facet normal -0.707107 0.707107 0
    outer loop
      vertex 11.9 36.5 3.8147e-07
      vertex 13.4 38 6
      vertex 13.4 38 3.8147e-07
    endloop
  endfacet
  facet normal -0.707107 0.707107 0
    outer loop
      vertex 13.4 38 6
      vertex 11.9 36.5 3.8147e-07
      vertex 11.9 36.5 6
    endloop
  endfacet
  facet normal -0.707107 -0.707107 0
    outer loop
      vertex 13.4 38 3.8147e-07
      vertex 11.9 39.5 6
      vertex 11.9 39.5 3.8147e-07
    endloop
  endfacet
  facet normal -0.707107 -0.707107 0
    outer loop
      vertex 11.9 39.5 6
      vertex 13.4 38 3.8147e-07
      vertex 13.4 38 6
    endloop
  endfacet
  facet normal 0 -0.707107 -0.707107
    outer loop
      vertex 3.8147e-07 39.5 11.9
      vertex 6 38 13.4
      vertex 3.8147e-07 38 13.4
    endloop
  endfacet
  facet normal 0 -0.707107 -0.707107
    outer loop
      vertex 6 38 13.4
      vertex 3.8147e-07 39.5 11.9
      vertex 6 39.5 11.9
    endloop
  endfacet
  facet normal 0 0.707107 0.707107
    outer loop
      vertex 6 38 10.4
      vertex 3.8147e-07 36.5 11.9
      vertex 6 36.5 11.9
    endloop
  endfacet
  facet normal 0 0.707107 0.707107
    outer loop
      vertex 3.8147e-07 36.5 11.9
      vertex 6 38 10.4
      vertex 3.8147e-07 38 10.4
    endloop
  endfacet
  facet normal 0 0.707107 -0.707107
    outer loop
      vertex 6 36.5 11.9
      vertex 3.8147e-07 38 13.4
      vertex 6 38 13.4
    endloop
  endfacet
  facet normal 0 0.707107 -0.707107
    outer loop
      vertex 3.8147e-07 38 13.4
      vertex 6 36.5 11.9
      vertex 3.8147e-07 36.5 11.9
    endloop
  endfacet
  facet normal 0 -0.707107 0.707107
    outer loop
      vertex 3.8147e-07 38 10.4
      vertex 6 39.5 11.9
      vertex 3.8147e-07 39.5 11.9
    endloop
  endfacet
  facet normal 0 -0.707107 0.707107
    outer loop
      vertex 6 39.5 11.9
      vertex 3.8147e-07 38 10.4
      vertex 6 38 10.4
    endloop
  endfacet
  facet normal 0.793487 0 -0.608587
    outer loop
      vertex 15.3393 149 17.4607
      vertex 15.101 151.9 17.15
      vertex 15.3393 151.9 17.4607
    endloop
  endfacet
  facet normal 0.793487 0 -0.608587
    outer loop
      vertex 15.101 151.9 17.15
      vertex 15.3393 149 17.4607
      vertex 15.101 149 17.15
    endloop
  endfacet
  facet normal -0.923846 0 -0.382765
    outer loop
      vertex 17.8489 149 16.7882
      vertex 17.699 151.9 17.15
      vertex 17.8489 151.9 16.7882
    endloop
  endfacet
  facet normal -0.923846 -0 -0.382765
    outer loop
      vertex 17.699 151.9 17.15
      vertex 17.8489 149 16.7882
      vertex 17.699 149 17.15
    endloop
  endfacet
  facet normal -0.991447 0 -0.130507
    outer loop
      vertex 17.9 149 16.4
      vertex 17.8489 151.9 16.7882
      vertex 17.9 151.9 16.4
    endloop
  endfacet
  facet normal -0.991447 -0 -0.130507
    outer loop
      vertex 17.8489 151.9 16.7882
      vertex 17.9 149 16.4
      vertex 17.8489 149 16.7882
    endloop
  endfacet
  facet normal -0.923846 0 0.382765
    outer loop
      vertex 17.699 149 15.65
      vertex 17.8489 151.9 16.0118
      vertex 17.699 151.9 15.65
    endloop
  endfacet
  facet normal -0.923846 0 0.382765
    outer loop
      vertex 17.8489 151.9 16.0118
      vertex 17.699 149 15.65
      vertex 17.8489 149 16.0118
    endloop
  endfacet
  facet normal -0.130507 0 0.991447
    outer loop
      vertex 16.4 151.9 14.9
      vertex 16.7882 149 14.9511
      vertex 16.7882 151.9 14.9511
    endloop
  endfacet
  facet normal -0.130507 0 0.991447
    outer loop
      vertex 16.7882 149 14.9511
      vertex 16.4 151.9 14.9
      vertex 16.4 149 14.9
    endloop
  endfacet
  facet normal -0.382765 0 0.923846
    outer loop
      vertex 16.7882 151.9 14.9511
      vertex 17.15 149 15.101
      vertex 17.15 151.9 15.101
    endloop
  endfacet
  facet normal -0.382765 0 0.923846
    outer loop
      vertex 17.15 149 15.101
      vertex 16.7882 151.9 14.9511
      vertex 16.7882 149 14.9511
    endloop
  endfacet
  facet normal 0.130507 0 0.991447
    outer loop
      vertex 16.0118 151.9 14.9511
      vertex 16.4 149 14.9
      vertex 16.4 151.9 14.9
    endloop
  endfacet
  facet normal 0.130507 0 0.991447
    outer loop
      vertex 16.4 149 14.9
      vertex 16.0118 151.9 14.9511
      vertex 16.0118 149 14.9511
    endloop
  endfacet
  facet normal 0.991447 0 -0.130507
    outer loop
      vertex 14.9511 149 16.7882
      vertex 14.9 151.9 16.4
      vertex 14.9511 151.9 16.7882
    endloop
  endfacet
  facet normal 0.991447 0 -0.130507
    outer loop
      vertex 14.9 151.9 16.4
      vertex 14.9511 149 16.7882
      vertex 14.9 149 16.4
    endloop
  endfacet
  facet normal 0.608587 0 0.793487
    outer loop
      vertex 15.3393 151.9 15.3393
      vertex 15.65 149 15.101
      vertex 15.65 151.9 15.101
    endloop
  endfacet
  facet normal 0.608587 0 0.793487
    outer loop
      vertex 15.65 149 15.101
      vertex 15.3393 151.9 15.3393
      vertex 15.3393 149 15.3393
    endloop
  endfacet
  facet normal 0.991447 -0 0.130507
    outer loop
      vertex 14.9 149 16.4
      vertex 14.9511 151.9 16.0118
      vertex 14.9 151.9 16.4
    endloop
  endfacet
  facet normal 0.991447 0 0.130507
    outer loop
      vertex 14.9511 151.9 16.0118
      vertex 14.9 149 16.4
      vertex 14.9511 149 16.0118
    endloop
  endfacet
  facet normal 0.382765 0 -0.923846
    outer loop
      vertex 15.65 149 17.699
      vertex 16.0118 151.9 17.8489
      vertex 16.0118 149 17.8489
    endloop
  endfacet
  facet normal 0.382765 0 -0.923846
    outer loop
      vertex 16.0118 151.9 17.8489
      vertex 15.65 149 17.699
      vertex 15.65 151.9 17.699
    endloop
  endfacet
  facet normal 0.923846 0 -0.382765
    outer loop
      vertex 15.101 149 17.15
      vertex 14.9511 151.9 16.7882
      vertex 15.101 151.9 17.15
    endloop
  endfacet
  facet normal 0.923846 0 -0.382765
    outer loop
      vertex 14.9511 151.9 16.7882
      vertex 15.101 149 17.15
      vertex 14.9511 149 16.7882
    endloop
  endfacet
  facet normal -0.382765 0 -0.923846
    outer loop
      vertex 16.7882 149 17.8489
      vertex 17.15 151.9 17.699
      vertex 17.15 149 17.699
    endloop
  endfacet
  facet normal -0.382765 0 -0.923846
    outer loop
      vertex 17.15 151.9 17.699
      vertex 16.7882 149 17.8489
      vertex 16.7882 151.9 17.8489
    endloop
  endfacet
  facet normal 0.130507 0 -0.991447
    outer loop
      vertex 16.0118 149 17.8489
      vertex 16.4 151.9 17.9
      vertex 16.4 149 17.9
    endloop
  endfacet
  facet normal 0.130507 0 -0.991447
    outer loop
      vertex 16.4 151.9 17.9
      vertex 16.0118 149 17.8489
      vertex 16.0118 151.9 17.8489
    endloop
  endfacet
  facet normal 0.608587 0 -0.793487
    outer loop
      vertex 15.3393 149 17.4607
      vertex 15.65 151.9 17.699
      vertex 15.65 149 17.699
    endloop
  endfacet
  facet normal 0.608587 0 -0.793487
    outer loop
      vertex 15.65 151.9 17.699
      vertex 15.3393 149 17.4607
      vertex 15.3393 151.9 17.4607
    endloop
  endfacet
  facet normal 0.793487 -0 0.608587
    outer loop
      vertex 15.101 149 15.65
      vertex 15.3393 151.9 15.3393
      vertex 15.101 151.9 15.65
    endloop
  endfacet
  facet normal 0.793487 0 0.608587
    outer loop
      vertex 15.3393 151.9 15.3393
      vertex 15.101 149 15.65
      vertex 15.3393 149 15.3393
    endloop
  endfacet
  facet normal -0.793487 0 0.608587
    outer loop
      vertex 17.4607 149 15.3393
      vertex 17.699 151.9 15.65
      vertex 17.4607 151.9 15.3393
    endloop
  endfacet
  facet normal -0.793487 0 0.608587
    outer loop
      vertex 17.699 151.9 15.65
      vertex 17.4607 149 15.3393
      vertex 17.699 149 15.65
    endloop
  endfacet
  facet normal -0.991447 0 0.130507
    outer loop
      vertex 17.8489 149 16.0118
      vertex 17.9 151.9 16.4
      vertex 17.8489 151.9 16.0118
    endloop
  endfacet
  facet normal -0.991447 0 0.130507
    outer loop
      vertex 17.9 151.9 16.4
      vertex 17.8489 149 16.0118
      vertex 17.9 149 16.4
    endloop
  endfacet
  facet normal -0.793487 0 -0.608587
    outer loop
      vertex 17.699 149 17.15
      vertex 17.4607 151.9 17.4607
      vertex 17.699 151.9 17.15
    endloop
  endfacet
  facet normal -0.793487 -0 -0.608587
    outer loop
      vertex 17.4607 151.9 17.4607
      vertex 17.699 149 17.15
      vertex 17.4607 149 17.4607
    endloop
  endfacet
  facet normal 0.923846 -0 0.382765
    outer loop
      vertex 14.9511 149 16.0118
      vertex 15.101 151.9 15.65
      vertex 14.9511 151.9 16.0118
    endloop
  endfacet
  facet normal 0.923846 0 0.382765
    outer loop
      vertex 15.101 151.9 15.65
      vertex 14.9511 149 16.0118
      vertex 15.101 149 15.65
    endloop
  endfacet
  facet normal -0.608587 0 -0.793487
    outer loop
      vertex 17.15 149 17.699
      vertex 17.4607 151.9 17.4607
      vertex 17.4607 149 17.4607
    endloop
  endfacet
  facet normal -0.608587 0 -0.793487
    outer loop
      vertex 17.4607 151.9 17.4607
      vertex 17.15 149 17.699
      vertex 17.15 151.9 17.699
    endloop
  endfacet
  facet normal -0.130507 0 -0.991447
    outer loop
      vertex 16.4 149 17.9
      vertex 16.7882 151.9 17.8489
      vertex 16.7882 149 17.8489
    endloop
  endfacet
  facet normal -0.130507 0 -0.991447
    outer loop
      vertex 16.7882 151.9 17.8489
      vertex 16.4 149 17.9
      vertex 16.4 151.9 17.9
    endloop
  endfacet
  facet normal -0.608587 0 0.793487
    outer loop
      vertex 17.15 151.9 15.101
      vertex 17.4607 149 15.3393
      vertex 17.4607 151.9 15.3393
    endloop
  endfacet
  facet normal -0.608587 0 0.793487
    outer loop
      vertex 17.4607 149 15.3393
      vertex 17.15 151.9 15.101
      vertex 17.15 149 15.101
    endloop
  endfacet
  facet normal 0.382765 0 0.923846
    outer loop
      vertex 15.65 151.9 15.101
      vertex 16.0118 149 14.9511
      vertex 16.0118 151.9 14.9511
    endloop
  endfacet
  facet normal 0.382765 0 0.923846
    outer loop
      vertex 16.0118 149 14.9511
      vertex 15.65 151.9 15.101
      vertex 15.65 149 15.101
    endloop
  endfacet
  facet normal -0.893907 0.432536 -0.117653
    outer loop
      vertex 19.2978 155 17.1765
      vertex 19.4 155 16.4
      vertex 17.9 151.9 16.4
    endloop
  endfacet
  facet normal 0.345107 0.432539 -0.832953
    outer loop
      vertex 16.0118 151.9 17.8489
      vertex 15.65 151.9 17.699
      vertex 15.6235 155 19.2978
    endloop
  endfacet
  facet normal 0.893906 0.432535 0.117668
    outer loop
      vertex 14.9 151.9 16.4
      vertex 14.9511 151.9 16.0118
      vertex 13.4 155 16.4
    endloop
  endfacet
  facet normal 0.715265 0.432543 0.548911
    outer loop
      vertex 15.101 151.9 15.65
      vertex 14.2787 155 14.2787
      vertex 13.8019 155 14.9
    endloop
  endfacet
  facet normal -0.832973 0.432549 -0.345048
    outer loop
      vertex 18.9981 155 17.9
      vertex 19.2978 155 17.1765
      vertex 17.699 151.9 17.15
    endloop
  endfacet
  facet normal 0.832953 0.432539 -0.345107
    outer loop
      vertex 15.101 151.9 17.15
      vertex 14.9511 151.9 16.7882
      vertex 13.5022 155 17.1765
    endloop
  endfacet
  facet normal 0.345048 0.432549 0.832973
    outer loop
      vertex 15.65 151.9 15.101
      vertex 15.6235 155 13.5022
      vertex 14.9 155 13.8019
    endloop
  endfacet
  facet normal -0.548911 0.432543 -0.715265
    outer loop
      vertex 17.9 155 18.9981
      vertex 18.5213 155 18.5213
      vertex 17.15 151.9 17.699
    endloop
  endfacet
  facet normal -0.345048 0.432549 0.832973
    outer loop
      vertex 17.9 155 13.8019
      vertex 17.1765 155 13.5022
      vertex 17.15 151.9 15.101
    endloop
  endfacet
  facet normal -0.893907 0.432536 0.117653
    outer loop
      vertex 19.4 155 16.4
      vertex 19.2978 155 15.6235
      vertex 17.9 151.9 16.4
    endloop
  endfacet
  facet normal -0.117653 0.432536 -0.893907
    outer loop
      vertex 16.4 155 19.4
      vertex 17.1765 155 19.2978
      vertex 16.4 151.9 17.9
    endloop
  endfacet
  facet normal 0.345048 0.432549 -0.832973
    outer loop
      vertex 15.6235 155 19.2978
      vertex 15.65 151.9 17.699
      vertex 14.9 155 18.9981
    endloop
  endfacet
  facet normal 0.548722 0.432504 0.715433
    outer loop
      vertex 15.3393 151.9 15.3393
      vertex 15.65 151.9 15.101
      vertex 14.2787 155 14.2787
    endloop
  endfacet
  facet normal 0.893907 0.432537 0.117653
    outer loop
      vertex 14.9511 151.9 16.0118
      vertex 13.5022 155 15.6235
      vertex 13.4 155 16.4
    endloop
  endfacet
  facet normal 0.832953 0.432539 0.345107
    outer loop
      vertex 14.9511 151.9 16.0118
      vertex 15.101 151.9 15.65
      vertex 13.5022 155 15.6235
    endloop
  endfacet
  facet normal 0.117653 0.432536 -0.893907
    outer loop
      vertex 16.4 155 19.4
      vertex 16.4 151.9 17.9
      vertex 15.6235 155 19.2978
    endloop
  endfacet
  facet normal 0.715433 0.432504 0.548722
    outer loop
      vertex 15.101 151.9 15.65
      vertex 15.3393 151.9 15.3393
      vertex 14.2787 155 14.2787
    endloop
  endfacet
  facet normal 0.832973 0.432549 -0.345048
    outer loop
      vertex 13.8019 155 17.9
      vertex 15.101 151.9 17.15
      vertex 13.5022 155 17.1765
    endloop
  endfacet
  facet normal 0.548911 0.432543 -0.715265
    outer loop
      vertex 14.9 155 18.9981
      vertex 15.65 151.9 17.699
      vertex 14.2787 155 18.5213
    endloop
  endfacet
  facet normal -0.345048 0.432549 -0.832973
    outer loop
      vertex 17.1765 155 19.2978
      vertex 17.9 155 18.9981
      vertex 17.15 151.9 17.699
    endloop
  endfacet
  facet normal 0.715265 0.432543 -0.548911
    outer loop
      vertex 14.2787 155 18.5213
      vertex 15.101 151.9 17.15
      vertex 13.8019 155 17.9
    endloop
  endfacet
  facet normal 0.117667 0.432538 -0.893904
    outer loop
      vertex 16.4 151.9 17.9
      vertex 16.0118 151.9 17.8489
      vertex 15.6235 155 19.2978
    endloop
  endfacet
  facet normal -0.715265 0.432543 0.548911
    outer loop
      vertex 18.9981 155 14.9
      vertex 18.5213 155 14.2787
      vertex 17.699 151.9 15.65
    endloop
  endfacet
  facet normal 0.832973 0.432549 0.345048
    outer loop
      vertex 15.101 151.9 15.65
      vertex 13.8019 155 14.9
      vertex 13.5022 155 15.6235
    endloop
  endfacet
  facet normal 0.548911 0.432543 0.715265
    outer loop
      vertex 15.65 151.9 15.101
      vertex 14.9 155 13.8019
      vertex 14.2787 155 14.2787
    endloop
  endfacet
  facet normal -0.548911 0.432543 0.715265
    outer loop
      vertex 18.5213 155 14.2787
      vertex 17.9 155 13.8019
      vertex 17.15 151.9 15.101
    endloop
  endfacet
  facet normal -0.548722 0.432504 -0.715433
    outer loop
      vertex 18.5213 155 18.5213
      vertex 17.4607 151.9 17.4607
      vertex 17.15 151.9 17.699
    endloop
  endfacet
  facet normal -0.715433 0.432504 -0.548722
    outer loop
      vertex 18.5213 155 18.5213
      vertex 17.699 151.9 17.15
      vertex 17.4607 151.9 17.4607
    endloop
  endfacet
  facet normal -0.832973 0.432549 0.345048
    outer loop
      vertex 19.2978 155 15.6235
      vertex 18.9981 155 14.9
      vertex 17.699 151.9 15.65
    endloop
  endfacet
  facet normal -0.117667 0.432538 -0.893904
    outer loop
      vertex 17.1765 155 19.2978
      vertex 16.7882 151.9 17.8489
      vertex 16.4 151.9 17.9
    endloop
  endfacet
  facet normal 0.893907 0.432537 -0.117653
    outer loop
      vertex 14.9511 151.9 16.7882
      vertex 13.4 155 16.4
      vertex 13.5022 155 17.1765
    endloop
  endfacet
  facet normal 0.893906 0.432535 -0.117668
    outer loop
      vertex 13.4 155 16.4
      vertex 14.9511 151.9 16.7882
      vertex 14.9 151.9 16.4
    endloop
  endfacet
  facet normal -0.832953 0.432539 -0.345107
    outer loop
      vertex 19.2978 155 17.1765
      vertex 17.8489 151.9 16.7882
      vertex 17.699 151.9 17.15
    endloop
  endfacet
  facet normal -0.715265 0.432543 -0.548911
    outer loop
      vertex 18.5213 155 18.5213
      vertex 18.9981 155 17.9
      vertex 17.699 151.9 17.15
    endloop
  endfacet
  facet normal 0.548722 0.432504 -0.715433
    outer loop
      vertex 15.65 151.9 17.699
      vertex 15.3393 151.9 17.4607
      vertex 14.2787 155 18.5213
    endloop
  endfacet
  facet normal 0.715433 0.432504 -0.548722
    outer loop
      vertex 15.3393 151.9 17.4607
      vertex 15.101 151.9 17.15
      vertex 14.2787 155 18.5213
    endloop
  endfacet
  facet normal 0.345107 0.432539 0.832953
    outer loop
      vertex 15.65 151.9 15.101
      vertex 16.0118 151.9 14.9511
      vertex 15.6235 155 13.5022
    endloop
  endfacet
  facet normal 0.117668 0.432535 0.893906
    outer loop
      vertex 16.4 151.9 14.9
      vertex 16.4 155 13.4
      vertex 16.0118 151.9 14.9511
    endloop
  endfacet
  facet normal -0.548722 0.432504 0.715433
    outer loop
      vertex 17.4607 151.9 15.3393
      vertex 18.5213 155 14.2787
      vertex 17.15 151.9 15.101
    endloop
  endfacet
  facet normal 0.117653 0.432537 0.893907
    outer loop
      vertex 16.0118 151.9 14.9511
      vertex 16.4 155 13.4
      vertex 15.6235 155 13.5022
    endloop
  endfacet
  facet normal -0.345107 0.432539 0.832953
    outer loop
      vertex 17.15 151.9 15.101
      vertex 17.1765 155 13.5022
      vertex 16.7882 151.9 14.9511
    endloop
  endfacet
  facet normal -0.345107 0.432539 -0.832953
    outer loop
      vertex 17.1765 155 19.2978
      vertex 17.15 151.9 17.699
      vertex 16.7882 151.9 17.8489
    endloop
  endfacet
  facet normal -0.715433 0.432504 0.548722
    outer loop
      vertex 17.699 151.9 15.65
      vertex 18.5213 155 14.2787
      vertex 17.4607 151.9 15.3393
    endloop
  endfacet
  facet normal -0.117653 0.432537 0.893907
    outer loop
      vertex 16.4 155 13.4
      vertex 16.7882 151.9 14.9511
      vertex 17.1765 155 13.5022
    endloop
  endfacet
  facet normal -0.117668 0.432535 0.893906
    outer loop
      vertex 16.7882 151.9 14.9511
      vertex 16.4 155 13.4
      vertex 16.4 151.9 14.9
    endloop
  endfacet
  facet normal -0.832953 0.432539 0.345107
    outer loop
      vertex 17.8489 151.9 16.0118
      vertex 19.2978 155 15.6235
      vertex 17.699 151.9 15.65
    endloop
  endfacet
  facet normal -0.893904 0.432538 0.117667
    outer loop
      vertex 17.9 151.9 16.4
      vertex 19.2978 155 15.6235
      vertex 17.8489 151.9 16.0118
    endloop
  endfacet
  facet normal -0.893904 0.432538 -0.117667
    outer loop
      vertex 19.2978 155 17.1765
      vertex 17.9 151.9 16.4
      vertex 17.8489 151.9 16.7882
    endloop
  endfacet
endsolid OpenSCAD_Model
